<?xml version="1.0" standalone="no"?>
<!DOCTYPE svg PUBLIC "-//W3C//DTD SVG 20010904//EN"
 "http://www.w3.org/TR/2001/REC-SVG-20010904/DTD/svg10.dtd">
<svg version="1.0" xmlns="http://www.w3.org/2000/svg"
 width="171.000000pt" height="112.000000pt" viewBox="0 0 171.000000 112.000000"
 preserveAspectRatio="xMidYMid meet">

<g transform="translate(0.000000,112.000000) scale(0.100000,-0.100000)"
fill="#000000" stroke="none">
<path d="M221 999 c-113 -34 -171 -113 -171 -231 0 -74 23 -129 71 -175 88
-83 208 -82 307 3 22 18 43 34 46 34 3 0 6 -14 6 -32 0 -17 2 -29 5 -27 5 6
34 183 31 187 -2 1 -19 -5 -39 -13 -101 -42 -196 18 -166 104 18 51 79 65 142
31 l38 -21 -7 48 c-4 26 -10 59 -14 73 l-7 25 -7 -23 -8 -23 -34 22 c-41 25
-140 34 -193 18z"/>
<path d="M1224 992 c-53 -25 -84 -65 -84 -110 0 -47 48 -92 132 -122 34 -13
71 -30 81 -38 40 -35 5 -92 -57 -92 -16 0 -54 14 -84 31 -61 34 -59 40 -21
-66 14 -40 18 -44 18 -23 l1 27 59 -31 c116 -59 266 -46 343 32 33 32 38 44
38 83 0 38 -5 49 -30 70 -16 14 -60 35 -97 47 -81 27 -124 61 -107 88 16 24
67 19 107 -10 57 -43 57 -43 41 13 -8 28 -19 61 -24 72 l-9 22 -7 -23 c-3 -13
-9 -21 -13 -20 -3 2 -31 16 -61 32 -73 38 -166 46 -226 18z"/>
<path d="M660 981 c-110 -17 -114 -18 -82 -30 38 -15 37 -13 22 -221 -9 -128
-11 -136 -36 -155 l-26 -20 164 -16 c90 -9 165 -15 167 -13 2 2 -12 11 -31 20
-35 16 -36 20 -72 154 -20 76 -36 142 -36 146 0 4 50 -64 112 -150 l111 -158
51 6 c28 3 62 6 76 7 24 1 24 1 -6 14 l-30 14 24 178 c20 151 27 180 44 194
20 16 16 17 -78 23 -54 4 -110 10 -124 13 l-25 5 24 -20 c21 -17 25 -32 37
-158 7 -76 11 -141 8 -143 -2 -2 -10 11 -18 30 -54 128 -138 294 -148 295 -7
1 -65 -6 -128 -15z"/>
<path d="M685 456 c-16 -7 -65 -52 -108 -99 -83 -92 -124 -115 -170 -98 -14 5
-33 20 -42 33 -17 23 -17 22 -12 -30 9 -111 100 -185 226 -186 90 -1 188 45
234 110 17 24 34 44 37 44 3 0 14 -14 24 -31 20 -33 82 -82 136 -106 20 -9 65
-16 105 -17 125 -1 210 63 234 176 13 58 8 72 -15 39 -9 -12 -27 -27 -41 -32
-46 -17 -87 6 -168 96 -105 115 -168 140 -242 95 -33 -20 -33 -20 -65 0 -38
23 -89 25 -133 6z"/>
</g>
</svg>
